<?xml version="1.0" standalone="no"?>
<!DOCTYPE svg PUBLIC "-//W3C//DTD SVG 20010904//EN"
 "http://www.w3.org/TR/2001/REC-SVG-20010904/DTD/svg10.dtd">
<svg version="1.0" xmlns="http://www.w3.org/2000/svg"
 width="1256.000000pt" height="1256.000000pt" viewBox="0 0 1256.000000 1256.000000"
 preserveAspectRatio="xMidYMid meet">
<metadata>
Created by potrace 1.14, written by Peter Selinger 2001-2017
</metadata>
<g transform="translate(0.000000,1256.000000) scale(0.100000,-0.100000)"
fill="#000000" stroke="none">
<path d="M1459 10196 c-2 -3 -33 -7 -67 -10 -35 -3 -67 -8 -70 -10 -4 -2 -25
-7 -46 -10 -22 -4 -64 -14 -94 -22 -30 -9 -60 -17 -66 -18 -6 -1 -15 -4 -21
-7 -5 -4 -28 -12 -50 -19 -98 -31 -342 -164 -412 -225 -6 -5 -26 -21 -44 -35
-98 -75 -241 -234 -326 -362 -50 -76 -149 -268 -158 -307 -3 -9 -14 -43 -25
-76 -21 -59 -25 -73 -35 -116 -2 -11 -6 -28 -9 -37 -3 -9 -8 -35 -11 -57 -3
-23 -9 -52 -12 -65 -4 -14 -9 -1455 -10 -3202 l-3 -3178 22 -1 c141 -4 208 -3
208 3 0 4 6 5 14 2 22 -8 466 -10 466 -2 0 4 6 5 14 2 22 -8 466 -10 466 -2 0
4 6 5 14 2 22 -8 466 -10 466 -2 0 4 6 5 14 2 22 -8 466 -10 466 -2 0 4 6 5
14 2 22 -8 466 -10 466 -2 0 4 6 5 14 2 22 -8 466 -10 466 -2 0 4 6 5 14 2 22
-8 466 -10 466 -2 0 4 6 5 14 2 22 -8 466 -10 466 -2 0 4 6 5 14 2 22 -8 466
-10 466 -2 0 4 6 5 14 2 21 -8 466 -10 466 -3 0 4 15 4 33 0 17 -4 43 -4 57
-1 14 4 38 3 53 -1 37 -10 41 1 33 108 -7 84 -9 108 -21 170 -3 16 -7 43 -10
61 -4 34 -8 46 -51 177 -26 78 -107 254 -142 306 -9 15 -28 45 -41 68 -14 22
-28 41 -33 41 -4 0 -8 5 -8 11 0 14 -71 98 -150 180 -48 49 -92 89 -167 150
-40 33 -142 99 -152 99 -6 0 -11 5 -11 10 0 6 -6 10 -13 10 -7 0 -19 6 -25 12
-7 7 -16 13 -20 14 -4 0 -43 18 -87 38 -44 21 -119 51 -168 67 -85 28 -104 33
-164 44 -16 3 -39 8 -53 11 -39 9 -80 14 -153 19 -37 2 -71 7 -76 10 -5 3 -12
1 -16 -5 -4 -6 -12 -7 -24 -1 -9 5 -23 6 -30 1 -8 -4 -26 -4 -41 0 -15 4 -33
4 -40 0 -7 -4 -25 -4 -41 0 -15 5 -44 5 -63 0 -21 -5 -36 -4 -36 1 0 6 -7 6
-18 0 -15 -8 -19 -6 -20 7 -2 15 -4 2784 -3 2840 1 13 12 34 26 48 21 20 32
24 60 20 31 -5 79 -38 70 -48 -3 -2 7 -17 20 -32 14 -16 25 -33 25 -38 0 -5 5
-14 11 -21 5 -7 29 -41 51 -77 23 -36 59 -91 80 -122 21 -32 38 -62 38 -68 0
-5 4 -10 9 -10 5 0 14 -13 21 -30 7 -16 16 -30 21 -30 5 0 9 -5 9 -10 0 -6 24
-47 53 -93 30 -45 62 -97 72 -114 11 -18 23 -33 27 -33 4 0 8 -7 8 -15 0 -8 5
-15 10 -15 6 0 10 -5 10 -11 0 -6 24 -48 53 -92 193 -298 290 -451 287 -456
-1 -2 2 -7 7 -10 14 -10 53 -70 53 -81 0 -5 5 -10 10 -10 6 0 10 -7 10 -15 0
-8 4 -15 9 -15 5 0 11 -8 14 -17 3 -10 44 -76 91 -148 47 -71 106 -164 132
-205 92 -144 317 -495 349 -545 74 -114 160 -176 275 -202 34 -8 175 -2 175 7
0 1 11 3 24 6 39 7 123 60 162 101 33 34 67 84 155 225 16 26 53 85 83 130 29
46 61 97 70 113 19 35 53 88 61 95 3 3 14 22 25 43 11 20 23 37 27 37 5 0 8 5
8 11 0 5 18 37 40 69 22 32 40 62 40 66 0 4 11 22 25 40 14 18 25 37 25 43 0
6 4 11 8 11 5 0 17 18 27 40 10 22 21 40 25 40 4 0 15 18 26 40 10 22 22 40
27 40 4 0 7 4 7 9 0 5 22 44 50 85 27 42 50 80 50 86 0 5 4 10 10 10 5 0 12
11 16 24 3 14 12 27 20 30 8 3 14 10 14 16 0 9 54 102 73 125 4 6 35 55 69
110 34 55 64 102 68 105 3 3 14 22 25 43 11 20 23 37 27 37 5 0 8 5 8 11 0 5
18 37 40 69 22 32 40 61 40 65 0 3 16 28 35 55 19 27 35 54 35 60 0 5 4 10 9
10 5 0 14 14 21 30 7 17 17 30 22 30 5 0 7 4 3 9 -3 5 1 15 8 23 12 12 135
205 230 361 21 34 44 67 50 74 9 10 12 -511 12 -2282 0 -1261 3 -2297 7 -2300
8 -9 68 -13 68 -6 0 3 35 6 78 7 253 3 554 101 792 259 41 27 77 51 80 55 3 3
28 23 55 45 68 54 185 172 185 186 0 7 3 9 6 6 6 -6 47 44 94 113 8 12 20 28
26 34 22 24 106 181 157 296 55 123 104 342 112 493 1 37 5 71 9 74 3 3 1 13
-4 22 -5 10 -5 23 0 31 5 8 5 21 -1 31 -6 11 -5 20 1 24 7 4 7 12 0 25 -7 13
-7 21 0 25 8 5 8 11 1 19 -6 7 -8 15 -5 19 9 9 11 78 2 83 -4 3 -3 15 2 28 5
13 6 27 3 30 -8 8 -7 85 1 93 3 3 1 12 -5 19 -7 8 -7 14 1 19 7 4 7 12 0 25
-6 11 -6 21 -1 25 6 3 6 17 1 35 -5 18 -5 32 1 35 5 4 5 14 -1 25 -7 13 -7 21
0 25 8 5 8 11 1 19 -6 7 -8 15 -5 19 9 9 11 78 2 83 -4 3 -3 16 2 29 5 13 6
27 1 29 -4 3 -5 26 -1 51 4 25 3 48 -1 51 -5 2 -4 15 1 28 5 13 6 27 3 30 -8
8 -7 85 1 93 3 3 1 12 -5 19 -7 8 -7 14 1 19 7 4 7 12 0 25 -6 11 -6 21 -1 24
5 3 7 15 4 25 -5 19 8 20 619 21 647 2 665 2 788 15 41 4 84 9 95 9 11 1 29 5
40 8 11 4 40 9 65 12 25 3 60 10 78 15 18 5 35 10 37 10 3 1 6 1 8 2 1 0 13 2
27 5 14 2 50 12 80 21 30 9 61 17 68 19 64 12 275 104 465 201 15 8 78 49 140
90 99 67 145 102 236 178 36 30 272 265 304 303 128 151 274 372 350 532 38
80 106 246 112 275 2 6 14 48 28 95 14 47 29 103 33 125 5 22 9 42 9 45 2 7
17 81 21 105 2 11 7 43 10 70 3 28 9 75 13 105 3 30 6 99 6 152 0 54 4 98 8
98 5 0 6 4 3 9 -3 4 -8 64 -11 132 -3 68 -7 137 -10 154 -2 16 -7 50 -10 75
-3 25 -7 56 -10 70 -3 14 -7 39 -10 55 -6 37 -25 126 -31 143 -2 7 -4 14 -4
17 -1 3 -6 19 -11 37 -6 18 -12 40 -14 48 -6 27 -66 194 -82 230 -65 147 -212
410 -234 418 -5 2 -9 8 -9 13 0 5 -23 40 -52 77 -184 241 -440 484 -653 620
-27 17 -54 35 -60 39 -15 12 -104 61 -165 91 -30 15 -57 29 -60 32 -6 6 -130
58 -185 77 -22 7 -47 16 -55 20 -35 14 -268 80 -306 86 -16 3 -58 10 -94 17
-65 12 -83 14 -215 28 -97 10 -2330 9 -2380 -1 -22 -4 -56 -13 -75 -20 -19 -6
-37 -12 -40 -12 -3 -1 -23 -9 -45 -19 -22 -10 -62 -27 -90 -37 -127 -50 -338
-165 -387 -212 -7 -6 -31 -25 -53 -41 -63 -46 -215 -203 -276 -286 -53 -71
-159 -236 -159 -247 0 -3 -10 -19 -22 -36 -13 -18 -28 -41 -34 -52 -15 -27
-170 -281 -198 -325 -24 -36 -279 -454 -306 -501 -48 -81 -75 -124 -82 -127
-4 -2 -8 -7 -8 -12 0 -4 -18 -37 -39 -71 -34 -55 -149 -244 -216 -355 -126
-209 -201 -330 -207 -332 -5 -2 -8 -7 -8 -12 0 -13 -179 -302 -203 -328 -12
-13 -31 -29 -41 -34 -25 -13 -116 -18 -116 -7 0 5 -3 8 -7 7 -27 -5 -73 34
-99 84 -9 18 -25 44 -34 58 -48 70 -90 140 -90 149 0 6 -4 11 -9 11 -5 0 -11
8 -15 18 -7 21 -40 78 -58 100 -7 9 -25 37 -38 62 -13 25 -28 50 -32 55 -9 10
-195 313 -228 370 -24 42 -158 263 -185 305 -13 19 -70 114 -129 210 -58 96
-109 180 -113 185 -4 6 -16 24 -26 40 -9 17 -57 94 -105 173 -48 79 -104 171
-124 205 -20 34 -41 67 -47 74 -6 7 -11 14 -11 16 0 3 -24 44 -117 197 -12 19
-25 40 -30 45 -4 6 -24 33 -43 60 -19 28 -46 63 -60 79 -35 41 -181 187 -210
210 -67 54 -158 116 -168 116 -7 0 -12 4 -12 9 0 10 -195 111 -215 111 -8 0
-15 5 -15 10 0 5 -3 9 -7 9 -5 -1 -11 0 -15 1 -5 1 -11 3 -15 5 -5 1 -17 5
-28 9 -67 26 -168 55 -215 62 -19 3 -69 12 -110 19 -56 10 -217 13 -631 14
-306 0 -558 -1 -560 -3z m7484 -1556 c24 3 55 3 70 -1 15 -4 29 -3 32 1 3 5
18 5 33 2 25 -6 51 -7 77 -2 26 4 104 2 114 -4 6 -4 11 -2 11 4 0 6 5 8 11 5
6 -4 32 -7 57 -6 26 0 71 1 100 1 28 0 60 0 70 0 9 0 26 0 37 0 53 -2 71 -2
80 0 26 4 104 2 114 -4 6 -4 11 -2 11 4 0 6 5 8 11 5 6 -4 32 -7 57 -6 212 4
308 -6 432 -46 55 -17 182 -82 192 -97 5 -6 8 -7 8 -1 0 6 5 2 11 -7 5 -10 16
-18 23 -18 15 0 180 -171 200 -208 8 -15 21 -38 28 -52 7 -14 15 -27 18 -30
10 -9 57 -124 74 -180 16 -54 20 -74 33 -155 8 -52 8 -240 -1 -285 -4 -19 -9
-48 -11 -64 -12 -77 -61 -211 -101 -276 -8 -14 -18 -33 -21 -42 -3 -10 -9 -18
-14 -18 -5 0 -9 -5 -9 -11 0 -38 -219 -249 -258 -249 -7 0 -12 -4 -12 -8 0
-14 -136 -72 -218 -93 -113 -29 -146 -31 -759 -32 l-563 -2 3 38 c2 21 0 40
-4 43 -5 3 -4 15 1 28 5 13 6 27 3 30 -8 8 -7 85 1 93 3 3 1 12 -5 19 -7 8 -7
14 1 19 7 4 7 12 0 25 -6 11 -6 21 -1 25 6 3 6 17 1 35 -5 18 -5 32 1 35 5 4
5 14 -1 25 -7 13 -7 21 0 25 8 5 8 11 1 19 -6 7 -8 15 -5 19 9 9 11 78 2 83
-4 3 -3 16 2 29 5 13 6 27 1 29 -4 3 -5 26 -1 51 4 25 3 48 -1 51 -5 2 -4 15
1 28 5 13 6 27 3 30 -8 8 -7 85 1 93 3 3 1 12 -5 19 -7 8 -7 14 1 19 7 4 7 12
0 25 -6 11 -6 21 -1 25 6 3 6 17 1 35 -5 18 -5 32 1 35 5 4 5 14 -1 25 -7 13
-7 21 0 25 8 5 8 11 1 19 -6 7 -8 15 -5 19 9 9 11 78 2 83 -4 3 -3 15 2 28 5
13 6 27 3 30 -8 8 -7 85 1 93 3 3 1 12 -5 19 -7 8 -7 14 1 19 7 4 7 12 0 25
-6 11 -6 21 -1 25 6 3 6 17 1 35 -5 18 -5 32 1 35 5 4 5 14 -1 25 -7 13 -7 21
0 25 8 5 8 11 1 19 -6 7 -8 15 -5 19 9 9 11 78 2 83 -4 3 -3 15 2 28 5 13 6
26 3 30 -9 9 -9 96 0 96 5 0 5 5 2 10 -4 6 -4 19 0 28 4 9 9 12 11 6 3 -7 20
-8 47 -4z"/>
</g>
</svg>
